<?xml version="1.0" encoding="us-ascii" standalone="no"?><svg xmlns="http://www.w3.org/2000/svg" xmlns:xlink="http://www.w3.org/1999/xlink" contentStyleType="text/css" height="610px" preserveAspectRatio="none" style="width:861px;height:610px;background:#FFFFFF;" version="1.1" viewBox="0 0 861 610" width="861px" zoomAndPan="magnify"><defs/><g><text fill="#000000" font-family="sans-serif" font-size="12" lengthAdjust="spacing" textLength="3" x="5" y="17.8281">&#160;</text><rect fill="#E2E2F0" height="5" style="stroke:#181818;stroke-width:1.0;" width="185" x="13" y="127.0162"/><rect fill="#E2E2F0" height="5" style="stroke:#181818;stroke-width:1.0;" width="185" x="13" y="233.3603"/><rect fill="#E2E2F0" height="5" style="stroke:#181818;stroke-width:1.0;" width="670" x="13" y="283.3603"/><rect fill="#E2E2F0" height="5" style="stroke:#181818;stroke-width:1.0;" width="185" x="13" y="389.7044"/><rect fill="#E2E2F0" height="5" style="stroke:#181818;stroke-width:1.0;" width="840" x="13" y="496.0485"/><path d="M61.5,92.0162 L61.5,127.0162 " fill="none" style="stroke:#181818;stroke-width:1.0;"/><path d="M57.5,132.0162 L57.5,162.0162 " fill="none" style="stroke:#181818;stroke-width:1.0;"/><path d="M53,198.3603 L53,233.3603 " fill="none" style="stroke:#181818;stroke-width:1.0;"/><path d="M66,198.3603 L66,230.3603 A4,4 0 0 1 66,242.3603 L66,283.3603 " fill="none" style="stroke:#181818;stroke-width:1.0;"/><path d="M150,132.0162 L150,162.0162 " fill="none" style="stroke:#181818;stroke-width:1.0;"/><path d="M145.5,198.3603 L145.5,233.3603 " fill="none" style="stroke:#181818;stroke-width:1.0;"/><path d="M154.5,198.3603 L154.5,230.3603 A4,4 0 0 1 154.5,242.3603 L154.5,280.3603 A4,4 0 0 1 154.5,292.3603 L154.5,389.7044 " fill="none" style="stroke:#181818;stroke-width:1.0;"/><path d="M57.5,288.3603 L57.5,318.3603 " fill="none" style="stroke:#181818;stroke-width:1.0;"/><path d="M242.5,288.3603 L242.5,318.3603 " fill="none" style="stroke:#181818;stroke-width:1.0;"/><path d="M339.5,288.3603 L339.5,318.3603 " fill="none" style="stroke:#181818;stroke-width:1.0;"/><path d="M440.5,288.3603 L440.5,318.3603 " fill="none" style="stroke:#181818;stroke-width:1.0;"/><path d="M536.5,288.3603 L536.5,318.3603 " fill="none" style="stroke:#181818;stroke-width:1.0;"/><path d="M631.5,288.3603 L631.5,318.3603 " fill="none" style="stroke:#181818;stroke-width:1.0;"/><path d="M61.5,394.7044 L61.5,424.7044 " fill="none" style="stroke:#181818;stroke-width:1.0;"/><path d="M61.5,461.0485 L61.5,496.0485 " fill="none" style="stroke:#181818;stroke-width:1.0;"/><path d="M57.5,501.0485 L57.5,531.0485 " fill="none" style="stroke:#181818;stroke-width:1.0;"/><path d="M150,501.0485 L150,531.0485 " fill="none" style="stroke:#181818;stroke-width:1.0;"/><path d="M242.5,501.0485 L242.5,531.0485 " fill="none" style="stroke:#181818;stroke-width:1.0;"/><path d="M339.5,501.0485 L339.5,531.0485 " fill="none" style="stroke:#181818;stroke-width:1.0;"/><path d="M440.5,501.0485 L440.5,531.0485 " fill="none" style="stroke:#181818;stroke-width:1.0;"/><path d="M536.5,501.0485 L536.5,531.0485 " fill="none" style="stroke:#181818;stroke-width:1.0;"/><path d="M631.5,501.0485 L631.5,531.0485 " fill="none" style="stroke:#181818;stroke-width:1.0;"/><path d="M730.5,501.0485 L730.5,531.0485 " fill="none" style="stroke:#181818;stroke-width:1.0;"/><path d="M815.5,501.0485 L815.5,531.0485 " fill="none" style="stroke:#181818;stroke-width:1.0;"/><path d="M43.5819,54.313 C47.7406,45.0042 54.7721,44.0723 61.6337,51.3761 C67.5849,45.4852 74.1955,46.1684 77.1983,54.5838 C84.6198,56.4765 87.5755,63.2373 81.6916,69.2159 C88.6172,75.7389 87.2075,80.9484 78.5451,84.1975 C75.7159,93.3753 68.7256,96.9721 61.0158,89.2642 C53.2187,97.3446 45.712,94.8777 42.0003,84.9502 C34.5873,80.2524 35.0349,74.8392 42.628,70.8075 C35.8236,65.7727 34.9301,58.454 43.5819,54.313 " fill="#F1F1F1" style="stroke:#181818;stroke-width:0.5;"/><text fill="#000000" font-family="sans-serif" font-size="12" lengthAdjust="spacing" textLength="21" x="49" y="73.5001">inet</text><rect fill="#F1F1F1" height="36.3441" style="stroke:#181818;stroke-width:0.5;" width="46" x="36.5" y="162.0162"/><text fill="#000000" font-family="sans-serif" font-size="12" lengthAdjust="spacing" textLength="26" x="46.5" y="184.8443">vfw1</text><rect fill="#F1F1F1" height="36.3441" style="stroke:#181818;stroke-width:0.5;" width="46" x="129" y="162.0162"/><text fill="#000000" font-family="sans-serif" font-size="12" lengthAdjust="spacing" textLength="26" x="139" y="184.8443">vfw2</text><rect fill="#F1F1F1" height="36.3441" style="stroke:#181818;stroke-width:0.5;" width="63" x="28" y="318.3603"/><text fill="#000000" font-family="sans-serif" font-size="12" lengthAdjust="spacing" textLength="43" x="38" y="341.1884">winsvr1</text><rect fill="#F1F1F1" height="36.3441" style="stroke:#181818;stroke-width:0.5;" width="63" x="213" y="318.3603"/><text fill="#000000" font-family="sans-serif" font-size="12" lengthAdjust="spacing" textLength="43" x="223" y="341.1884">winsvr2</text><rect fill="#F1F1F1" height="36.3441" style="stroke:#181818;stroke-width:0.5;" width="71" x="306" y="318.3603"/><text fill="#000000" font-family="sans-serif" font-size="12" lengthAdjust="spacing" textLength="51" x="316" y="341.1884">winadm1</text><rect fill="#F1F1F1" height="36.3441" style="stroke:#181818;stroke-width:0.5;" width="71" x="407" y="318.3603"/><text fill="#000000" font-family="sans-serif" font-size="12" lengthAdjust="spacing" textLength="51" x="417" y="341.1884">winadm2</text><rect fill="#F1F1F1" height="36.3441" style="stroke:#181818;stroke-width:0.5;" width="61" x="508" y="318.3603"/><text fill="#000000" font-family="sans-serif" font-size="12" lengthAdjust="spacing" textLength="41" x="518" y="341.1884">debfls1</text><rect fill="#F1F1F1" height="36.3441" style="stroke:#181818;stroke-width:0.5;" width="61" x="603" y="318.3603"/><text fill="#000000" font-family="sans-serif" font-size="12" lengthAdjust="spacing" textLength="41" x="613" y="341.1884">debfls2</text><rect fill="#F1F1F1" height="36.3441" style="stroke:#181818;stroke-width:0.5;" width="50" x="34.5" y="424.7044"/><text fill="#000000" font-family="sans-serif" font-size="12" lengthAdjust="spacing" textLength="30" x="44.5" y="447.5325">wap0</text><rect fill="#F1F1F1" height="36.3441" style="stroke:#181818;stroke-width:0.5;" width="62" x="28.5" y="531.0485"/><text fill="#000000" font-family="sans-serif" font-size="12" lengthAdjust="spacing" textLength="42" x="38.5" y="553.8766">laptop1</text><rect fill="#F1F1F1" height="36.3441" style="stroke:#181818;stroke-width:0.5;" width="62" x="121" y="531.0485"/><text fill="#000000" font-family="sans-serif" font-size="12" lengthAdjust="spacing" textLength="42" x="131" y="553.8766">laptop2</text><rect fill="#F1F1F1" height="36.3441" style="stroke:#181818;stroke-width:0.5;" width="59" x="215" y="531.0485"/><text fill="#000000" font-family="sans-serif" font-size="12" lengthAdjust="spacing" textLength="39" x="225" y="553.8766">tablet1</text><rect fill="#F1F1F1" height="36.3441" style="stroke:#181818;stroke-width:0.5;" width="68" x="307.5" y="531.0485"/><text fill="#000000" font-family="sans-serif" font-size="12" lengthAdjust="spacing" textLength="48" x="317.5" y="553.8766">cphone1</text><rect fill="#F1F1F1" height="36.3441" style="stroke:#181818;stroke-width:0.5;" width="37" x="424" y="531.0485"/><text fill="#000000" font-family="sans-serif" font-size="12" lengthAdjust="spacing" textLength="17" x="434" y="553.8766">tv1</text><rect fill="#F1F1F1" height="36.3441" style="stroke:#181818;stroke-width:0.5;" width="37" x="520" y="531.0485"/><text fill="#000000" font-family="sans-serif" font-size="12" lengthAdjust="spacing" textLength="17" x="530" y="553.8766">tv2</text><rect fill="#F1F1F1" height="36.3441" style="stroke:#181818;stroke-width:0.5;" width="69" x="599" y="531.0485"/><text fill="#000000" font-family="sans-serif" font-size="12" lengthAdjust="spacing" textLength="49" x="609" y="553.8766">mediap1</text><rect fill="#F1F1F1" height="36.3441" style="stroke:#181818;stroke-width:0.5;" width="69" x="698" y="531.0485"/><text fill="#000000" font-family="sans-serif" font-size="12" lengthAdjust="spacing" textLength="49" x="708" y="553.8766">mediap2</text><rect fill="#F1F1F1" height="36.3441" style="stroke:#181818;stroke-width:0.5;" width="41" x="797" y="531.0485"/><text fill="#000000" font-family="sans-serif" font-size="12" lengthAdjust="spacing" textLength="21" x="807" y="553.8766">iotn</text><!--SRC=[XP113i8W44NNS0gE86o99p4kfeLQ8WLInh8mtbsc63Iwa0MylFapan2ASN0HTovUnmMBufHdI5OSnUZZpPmrVp1UVOdhjKOPPJHdsrHaUrHDV0R-LeeBULlVf1g1MMGdSiOEay-oazBiPzxU2-dmjQafvY5XJB8JfH46Rv7ScEOOB15kxQRwOkkdx3sDoBc8eMvu0W00]--></g></svg>